Coordinates
version=1
nRows=17
nColumns=40
inDegrees=yes

Units are S.I. units (second, meters, Newtons, ...)
Angles are in degrees.

endheader
time	pelvis_tilt	pelvis_list	pelvis_rotation	pelvis_tx	pelvis_ty	pelvis_tz	hip_flexion_r	hip_adduction_r	hip_rotation_r	knee_angle_r	knee_angle_r_beta	ankle_angle_r	subtalar_angle_r	mtp_angle_r	hip_flexion_l	hip_adduction_l	hip_rotation_l	knee_angle_l	knee_angle_l_beta	ankle_angle_l	subtalar_angle_l	mtp_angle_l	lumbar_extension	lumbar_bending	lumbar_rotation	arm_flex_r	arm_add_r	arm_rot_r	elbow_flex_r	pro_sup_r	wrist_flex_r	wrist_dev_r	arm_flex_l	arm_add_l	arm_rot_l	elbow_flex_l	pro_sup_l	wrist_flex_l	wrist_dev_l
     14.78000000	     -6.94314990	     -7.67746235	      3.53817081	      0.96199057	      0.91341252	      0.48633139	      0.07899155	      7.30141377	    -16.36892622	      7.55238056	      7.55238056	     16.54547431	      7.61252129	     -3.39239368	     38.70632895	    -10.66815174	      1.28175556	     21.17352650	     21.17352650	      7.26897169	     -8.24339683	     13.77285365	    -10.90083451	      5.88286736	      5.58040981	     40.68432540	    -14.82460879	      4.58285161	    111.61003202	     43.91430983	      0.00000000	      0.00000000	    -18.28663429	     -7.21573973	     -0.27583078	     28.84097843	     45.01451165	      0.00000000	      0.00000000
     14.79171429	     -6.92270061	     -7.65083399	      3.50694537	      0.96351039	      0.91173814	      0.48434818	     -0.53893663	      7.14838074	    -16.10109600	      7.78207800	      7.78207800	     17.11016061	      7.47169864	     -3.45850376	     38.04636383	    -10.51647917	      0.28677388	     20.67067331	     20.67067331	      6.56009573	     -8.32259780	     13.70057650	    -10.59313475	      5.90774104	      5.53883509	     41.76811559	    -14.38207882	      4.60927557	    112.87696234	     43.88798255	      0.00000000	      0.00000000	    -18.52550195	     -7.22992241	     -0.12580140	     28.78494537	     44.99488476	      0.00000000	      0.00000000
     14.80342857	     -6.91388518	     -7.64581803	      3.44200908	      0.96523548	      0.91008905	      0.48230177	     -1.06845048	      6.98878614	    -15.73748133	      8.20015705	      8.20015705	     17.91198950	      7.16140719	     -2.73512256	     37.30396966	    -10.38127243	     -0.54284253	     20.19322308	     20.19322308	      4.25698727	     -9.06806450	      9.92724268	    -10.33245250	      5.93087158	      5.90092059	     42.07920581	    -14.42093230	      4.53068174	    115.43510647	     43.88659871	      0.00000000	      0.00000000	    -18.59139973	     -7.46755716	      0.72513883	     28.85765550	     44.92503107	      0.00000000	      0.00000000
     14.81514286	     -6.95441692	     -7.52360499	      3.38987805	      0.96688521	      0.90869569	      0.48004491	     -1.59781756	      6.67833510	    -15.52122427	      8.48219442	      8.48219442	     18.35735121	      7.08764900	     -2.85594016	     36.89195032	    -10.16105454	     -1.32645377	     20.51812849	     20.51812849	      3.51332116	     -9.37572996	      9.94675859	     -9.96907545	      5.81502652	      5.77912809	     42.75571252	    -13.97063663	      4.55256495	    116.12015997	     43.87217003	      0.00000000	      0.00000000	    -18.56780612	     -7.48171425	      0.79151151	     28.76085213	     44.92023506	      0.00000000	      0.00000000
     14.82685714	     -6.96611782	     -7.39087459	      3.42381388	      0.96841484	      0.90752884	      0.47753867	     -1.85359243	      6.26424308	    -15.41067447	      9.34986111	      9.34986111	     18.93421689	      6.74275930	     -2.96183396	     36.43406190	     -9.87381653	     -1.80579899	     20.86643463	     20.86643463	      2.45721106	     -9.80020375	      9.11792486	     -9.77339004	      5.72789215	      5.33985808	     43.25844989	    -13.16685602	      4.69955107	    117.80753061	     43.83052197	      0.00000000	      0.00000000	    -18.47024825	     -7.42361571	      0.95120620	     28.44398209	     44.91197026	      0.00000000	      0.00000000
     14.83857143	     -7.10117843	     -7.18954398	      3.40889359	      0.96995412	      0.90655529	      0.47487696	     -1.94085997	      5.72377981	    -15.35537981	     10.29283382	     10.29283382	     19.49473973	      6.56326219	     -2.79522439	     36.05236049	     -9.49726287	     -2.05682648	     21.17494392	     21.17494392	      0.78190922	    -10.73109650	      6.67471033	     -9.42259530	      5.54980112	      5.46359968	     43.15297132	    -13.10352664	      4.56987328	    119.66852259	     43.80939543	      0.00000000	      0.00000000	    -17.84388448	     -7.48694238	      1.17161798	     27.84884896	     44.92458289	      0.00000000	      0.00000000
     14.85028571	     -6.99809953	     -7.00755304	      3.43233429	      0.97155574	      0.90634539	      0.47208504	     -2.44943294	      5.25724951	    -15.27864754	     10.88062539	     10.88062539	     19.70006466	      6.45479843	     -2.85758648	     35.63392092	     -9.20360247	     -2.21510633	     21.97523623	     21.97523623	      0.32103898	    -11.16968479	      6.20834958	     -9.34932729	      5.38344942	      5.32301335	     43.15261094	    -12.86780930	      4.56191996	    120.17495735	     43.80131221	      0.00000000	      0.00000000	    -17.37467732	     -7.55549535	      1.22299215	     27.77126214	     44.93296542	      0.00000000	      0.00000000
     14.86200000	     -7.08883138	     -6.72574959	      3.48262723	      0.97290375	      0.90624864	      0.46896380	     -2.46151609	      4.53615540	    -15.48103241	     12.02136570	     12.02136570	     19.99669479	      6.55427126	     -2.84078433	     35.24533032	     -8.68917702	     -2.05169657	     22.38551612	     22.38551612	     -0.91746936	    -12.26766683	      3.76669300	     -9.15177864	      5.13689700	      5.74753395	     42.48795622	    -13.18036196	      3.92601579	    122.11020344	     43.81760519	      0.00000000	      0.00000000	    -16.02379035	     -7.56314858	      1.53953996	     26.57414028	     44.97516891	      0.00000000	      0.00000000
     14.87371429	     -7.08252571	     -6.58419154	      3.56512599	      0.97428882	      0.90690510	      0.46574312	     -2.84603711	      4.08585658	    -15.45010516	     12.53576935	     12.53576935	     19.77054974	      6.43983528	     -2.84390739	     34.82617126	     -8.36233184	     -1.93159974	     22.96713717	     22.96713717	     -0.68200597	    -12.45452761	      3.56221455	     -9.05154549	      5.09945153	      5.36329665	     42.19464989	    -13.03169260	      4.00725063	    122.21755639	     43.81189158	      0.00000000	      0.00000000	    -15.31797699	     -7.60950612	      1.55571314	     26.77108843	     44.98673235	      0.00000000	      0.00000000
     14.88542857	     -7.15338178	     -6.26430986	      3.61009659	      0.97526940	      0.90740140	      0.46234219	     -2.35576533	      3.14647465	    -15.57455776	     14.63390820	     14.63390820	     19.93747076	      6.18647818	     -3.55618089	     34.68532876	     -7.83916377	     -1.71658428	     23.90913299	     23.90913299	     -0.38339606	    -13.03092296	      3.48079396	     -8.95929119	      4.85079201	      5.24029375	     41.49852688	    -12.79313343	      4.09236092	    123.11157093	     43.78966951	      0.00000000	      0.00000000	    -14.51112276	     -7.64933562	      1.59151347	     26.65405098	     45.00970915	      0.00000000	      0.00000000
     14.89714286	     -7.14117473	     -5.98019489	      3.68051600	      0.97641505	      0.90862583	      0.45878780	     -2.26293029	      2.30299408	    -15.90991053	     16.06254624	     16.06254624	     19.34420752	      6.27373951	     -5.14143329	     34.26701334	     -7.28328597	     -1.31064192	     24.54514605	     24.54514605	      0.55896181	    -13.54353649	      4.60654402	     -8.94710902	      4.63072971	      5.77857568	     40.07305785	    -13.41477840	      3.39138241	    124.42768583	     43.81446227	      0.00000000	      0.00000000	    -12.82975774	     -7.73332257	      1.66558357	     25.82551560	     45.09015501	      0.00000000	      0.00000000
     14.90885714	     -7.18162512	     -5.76371990	      3.72243108	      0.97740976	      0.90997076	      0.45517866	     -1.88326212	      1.49633367	    -15.92565360	     17.89020109	     17.89020109	     18.90066705	      5.91420195	     -5.82693623	     33.83961035	     -6.84831419	     -1.16418616	     25.00211874	     25.00211874	      1.26019768	    -13.80426244	      4.62374490	     -8.89145230	      4.53065323	      5.56855979	     39.06657863	    -13.49063019	      3.48982842	    124.31632054	     43.81965643	      0.00000000	      0.00000000	    -11.81954964	     -7.71938549	      1.66299718	     26.08938925	     45.12022718	      0.00000000	      0.00000000
     14.92057143	     -6.99434476	     -5.65171845	      3.76856586	      0.97858485	      0.91182628	      0.45156204	     -1.75602023	      0.82209759	    -15.93102310	     19.67097155	     19.67097155	     18.26068927	      5.60708428	     -6.38291418	     33.09949641	     -6.52562521	     -0.94970390	     25.33884588	     25.33884588	      2.04329741	    -14.07916464	      4.57665711	     -9.07923676	      4.58763646	      5.41665862	     37.82279812	    -13.52404806	      3.63940150	    124.04916377	     43.82160954	      0.00000000	      0.00000000	    -10.80224855	     -7.77072815	      1.63510581	     26.43794186	     45.14796930	      0.00000000	      0.00000000
     14.93228571	     -7.17205980	     -5.38391141	      3.72053231	      0.97931716	      0.91323335	      0.44789252	     -0.77105193	     -0.20363445	    -15.87178079	     22.27431445	     22.27431445	     17.35609167	      5.02892555	     -7.77540292	     32.61487581	     -6.02592638	     -0.87421260	     25.41935089	     25.41935089	      2.78781800	    -14.34563203	      4.95401207	     -8.89899959	      4.42291188	      5.49548814	     36.33152940	    -14.02873178	      3.55175682	    123.58972107	     43.84122175	      0.00000000	      0.00000000	     -9.56424618	     -7.78676044	      1.54683040	     26.94110842	     45.19340451	      0.00000000	      0.00000000
     14.94400000	     -7.10677935	     -5.21308529	      3.65098239	      0.98020395	      0.91500202	      0.44435197	     -0.03651253	     -1.06753753	    -15.65906782	     24.82008712	     24.82008712	     16.17438221	      4.29995232	     -9.00750455	     31.85672765	     -5.67836928	     -0.89572082	     25.48703000	     25.48703000	      3.58056865	    -14.55289725	      5.16961237	     -8.98014788	      4.38856594	      5.56075717	     34.69029789	    -14.31446570	      3.54018285	    122.88870561	     43.86262442	      0.00000000	      0.00000000	     -8.35652992	     -7.84555684	      1.45117005	     27.51640981	     45.23580373	      0.00000000	      0.00000000
     14.95571429	     -7.14052780	     -5.07695202	      3.55566978	      0.98090929	      0.91653873	      0.44095186	      1.05209090	     -1.91650802	    -15.32442119	     27.72314425	     27.72314425	     14.68947223	      3.15933715	    -10.50216339	     31.14391616	     -5.37610315	     -0.97941257	     25.40532292	     25.40532292	      4.32859237	    -14.63626134	      5.40583153	     -8.94022920	      4.39132928	      5.64524383	     32.98070502	    -14.73594020	      3.38631277	    121.85398334	     43.89958836	      0.00000000	      0.00000000	     -7.11609178	     -7.89370169	      1.32332584	     28.25960916	     45.28273835	      0.00000000	      0.00000000
     14.96742857	     -6.91866335	     -5.11249422	      3.54699343	      0.98169271	      0.91827966	      0.43763412	      1.92613720	     -2.54237431	    -15.06292129	     30.67334970	     30.67334970	     13.07785270	      2.05405597	    -11.44741599	     30.17473180	     -5.24696358	     -0.93111128	     25.31068628	     25.31068628	      5.07607453	    -14.58176398	      5.39202248	     -9.20730637	      4.62440936	      5.54940161	     31.32388439	    -14.88724634	      3.38140409	    120.77991188	     43.92974316	      0.00000000	      0.00000000	     -5.86075371	     -7.90978312	      1.23484325	     29.01029730	     45.31998709	      0.00000000	      0.00000000
